# xmcd CD database file
#
# Track frame offsets:
#	187
#	24715
#	36302
#	59550
#	75152
#	87277
#	126025
#	148080
#	186590
#	205985
#	229912
#	254720
#	269817
#	286780
#	307655
#	319502
#
# Disc length: 4481 seconds
#
# Revision: 1
# Processed by: cddbd v1.5.2PL0 Copyright (c) Steve Scherf et al.
# Submitted via: CDex 1.51
#
DISCID=ec117f10
DTITLE=B.B.King - His Definitive Greatest Hits (Disc-1)
DYEAR=1998
DGENRE=Blues
TTITLE0=The Thrill Is Gone
TTITLE1=Paying The Cost To Be The Boss 
TTITLE2=Don't Answer The Door
TTITLE3=I Like To Live The Love 
TTITLE4=How Blue Can You Get
TTITLE5=Why I Sing The Blues
TTITLE6=Chains And Things
TTITLE7=To Know You Is To Love You 
TTITLE8=When Love Comes To Town
TTITLE9=Playin' With My Friends
TTITLE10=Never Make A Move Too Soon
TTITLE11=Better Not Look Down
TTITLE12=There Must Be A Better World Somewhere
TTITLE13=Hummingbird
TTITLE14=Everyday I Have The Blues
TTITLE15=Sweet Little Angel
EXTD=YEAR: 1998
EXTT0=
EXTT1=
EXTT2=
EXTT3=
EXTT4=
EXTT5=
EXTT6=
EXTT7=
EXTT8=
EXTT9=
EXTT10=
EXTT11=
EXTT12=
EXTT13=
EXTT14=
EXTT15=
PLAYORDER=
